<mxfile host="65bd71144e">
    <diagram id="trM6bqEhcSxJG7lDfmsz" name="Page-1">
        <mxGraphModel dx="946" dy="1105" grid="1" gridSize="10" guides="1" tooltips="1" connect="1" arrows="1" fold="1" page="1" pageScale="1" pageWidth="850" pageHeight="1100" math="0" shadow="0">
            <root>
                <mxCell id="0"/>
                <mxCell id="1" parent="0"/>
                <mxCell id="3" value="1.1" style="swimlane;childLayout=stackLayout;horizontal=1;startSize=30;horizontalStack=0;rounded=1;fontSize=14;fontStyle=0;strokeWidth=2;resizeParent=0;resizeLast=1;shadow=0;dashed=0;align=center;" vertex="1" parent="1">
                    <mxGeometry x="230" y="210" width="160" height="120" as="geometry"/>
                </mxCell>
                <mxCell id="4" value="Display&#10;Digital Menu/Kiosk" style="align=center;strokeColor=none;fillColor=none;spacingLeft=4;fontSize=15;verticalAlign=middle;resizable=0;rotatable=0;part=1;" vertex="1" parent="3">
                    <mxGeometry y="30" width="160" height="90" as="geometry"/>
                </mxCell>
                <mxCell id="5" value="1.2" style="swimlane;childLayout=stackLayout;horizontal=1;startSize=30;horizontalStack=0;rounded=1;fontSize=14;fontStyle=0;strokeWidth=2;resizeParent=0;resizeLast=1;shadow=0;dashed=0;align=center;" vertex="1" parent="1">
                    <mxGeometry x="474.38" y="210" width="160" height="120" as="geometry"/>
                </mxCell>
                <mxCell id="6" value="Input Orders" style="align=center;strokeColor=none;fillColor=none;spacingLeft=4;fontSize=15;verticalAlign=middle;resizable=0;rotatable=0;part=1;" vertex="1" parent="5">
                    <mxGeometry y="30" width="160" height="90" as="geometry"/>
                </mxCell>
                <mxCell id="7" value="1.3" style="swimlane;childLayout=stackLayout;horizontal=1;startSize=30;horizontalStack=0;rounded=1;fontSize=14;fontStyle=0;strokeWidth=2;resizeParent=0;resizeLast=1;shadow=0;dashed=0;align=center;" vertex="1" parent="1">
                    <mxGeometry x="710" y="210" width="160" height="120" as="geometry"/>
                </mxCell>
                <mxCell id="8" value="Generate &#10;QR Code" style="align=center;strokeColor=none;fillColor=none;spacingLeft=4;fontSize=15;verticalAlign=middle;resizable=0;rotatable=0;part=1;" vertex="1" parent="7">
                    <mxGeometry y="30" width="160" height="90" as="geometry"/>
                </mxCell>
                <mxCell id="9" style="edgeStyle=none;rounded=0;html=1;exitX=0.998;exitY=0.665;exitDx=0;exitDy=0;entryX=0;entryY=0.665;entryDx=0;entryDy=0;exitPerimeter=0;entryPerimeter=0;" edge="1" parent="1" source="6" target="8">
                    <mxGeometry relative="1" as="geometry"/>
                </mxCell>
                <mxCell id="10" value="Order&lt;br&gt;Details" style="text;html=1;strokeColor=none;fillColor=none;align=center;verticalAlign=middle;whiteSpace=wrap;rounded=0;" vertex="1" parent="1">
                    <mxGeometry x="647.5" y="220" width="45" height="30" as="geometry"/>
                </mxCell>
                <mxCell id="11" style="edgeStyle=none;rounded=0;html=1;exitX=0.998;exitY=0.665;exitDx=0;exitDy=0;entryX=0;entryY=0.665;entryDx=0;entryDy=0;exitPerimeter=0;entryPerimeter=0;" edge="1" parent="1">
                    <mxGeometry relative="1" as="geometry">
                        <mxPoint x="634.06" y="260" as="sourcePoint"/>
                        <mxPoint x="710" y="260" as="targetPoint"/>
                    </mxGeometry>
                </mxCell>
                <mxCell id="12" value="Ordered &lt;br&gt;Items" style="text;html=1;strokeColor=none;fillColor=none;align=center;verticalAlign=middle;whiteSpace=wrap;rounded=0;" vertex="1" parent="1">
                    <mxGeometry x="630" y="310" width="80" height="30" as="geometry"/>
                </mxCell>
                <mxCell id="13" value="" style="endArrow=classic;html=1;rounded=0;entryX=0.5;entryY=0;entryDx=0;entryDy=0;" edge="1" parent="1">
                    <mxGeometry width="50" height="50" relative="1" as="geometry">
                        <mxPoint x="554" y="100" as="sourcePoint"/>
                        <mxPoint x="554.3800000000001" y="210" as="targetPoint"/>
                        <Array as="points"/>
                    </mxGeometry>
                </mxCell>
                <mxCell id="14" value="" style="endArrow=classic;html=1;rounded=0;exitX=0.5;exitY=0;exitDx=0;exitDy=0;" edge="1" parent="1">
                    <mxGeometry width="50" height="50" relative="1" as="geometry">
                        <mxPoint x="310" y="210" as="sourcePoint"/>
                        <mxPoint x="310" y="100" as="targetPoint"/>
                        <Array as="points"/>
                    </mxGeometry>
                </mxCell>
                <mxCell id="15" style="edgeStyle=none;rounded=0;jumpStyle=arc;html=1;entryX=0.5;entryY=1;entryDx=0;entryDy=0;exitX=0.5;exitY=0;exitDx=0;exitDy=0;" edge="1" parent="1" source="22">
                    <mxGeometry relative="1" as="geometry">
                        <mxPoint x="310" y="420" as="sourcePoint"/>
                        <mxPoint x="310" y="330" as="targetPoint"/>
                    </mxGeometry>
                </mxCell>
                <mxCell id="16" style="edgeStyle=none;rounded=0;jumpStyle=arc;html=1;exitX=0.5;exitY=0;exitDx=0;exitDy=0;" edge="1" parent="1">
                    <mxGeometry relative="1" as="geometry">
                        <Array as="points"/>
                        <mxPoint x="790" y="210" as="sourcePoint"/>
                        <mxPoint x="790" y="100" as="targetPoint"/>
                    </mxGeometry>
                </mxCell>
                <mxCell id="17" style="edgeStyle=none;html=1;exitX=0.472;exitY=1.013;exitDx=0;exitDy=0;exitPerimeter=0;entryX=0.468;entryY=-0.025;entryDx=0;entryDy=0;entryPerimeter=0;" edge="1" parent="1" target="23">
                    <mxGeometry relative="1" as="geometry">
                        <mxPoint x="550" y="460" as="targetPoint"/>
                        <mxPoint x="549.9000000000003" y="331.1700000000001" as="sourcePoint"/>
                    </mxGeometry>
                </mxCell>
                <mxCell id="18" style="edgeStyle=none;rounded=0;html=1;exitX=0.75;exitY=1;exitDx=0;exitDy=0;entryX=0.583;entryY=0;entryDx=0;entryDy=0;entryPerimeter=0;" edge="1" parent="1" target="24">
                    <mxGeometry relative="1" as="geometry">
                        <Array as="points">
                            <mxPoint x="594" y="330"/>
                            <mxPoint x="594" y="400"/>
                            <mxPoint x="830" y="400"/>
                        </Array>
                        <mxPoint x="594.3800000000001" y="330" as="sourcePoint"/>
                        <mxPoint x="830" y="440" as="targetPoint"/>
                    </mxGeometry>
                </mxCell>
                <mxCell id="19" style="edgeStyle=none;rounded=0;jumpStyle=arc;html=1;entryX=0;entryY=0.5;entryDx=0;entryDy=0;" edge="1" parent="1">
                    <mxGeometry relative="1" as="geometry">
                        <mxPoint x="230" y="285" as="targetPoint"/>
                        <Array as="points">
                            <mxPoint x="160" y="285"/>
                        </Array>
                        <mxPoint x="160" y="450" as="sourcePoint"/>
                    </mxGeometry>
                </mxCell>
                <mxCell id="20" value="Menu Interface" style="text;html=1;strokeColor=none;fillColor=none;align=center;verticalAlign=middle;whiteSpace=wrap;rounded=0;" vertex="1" parent="1">
                    <mxGeometry x="40" y="370" width="110" height="30" as="geometry"/>
                </mxCell>
                <mxCell id="21" value="Menu Info" style="text;html=1;align=center;verticalAlign=middle;resizable=0;points=[];autosize=1;strokeColor=none;fillColor=none;" vertex="1" parent="1">
                    <mxGeometry x="230" y="140" width="80" height="30" as="geometry"/>
                </mxCell>
                <mxCell id="22" value="&lt;span style=&quot;white-space: pre;&quot;&gt;&amp;nbsp; D1&lt;span style=&quot;white-space: pre;&quot;&gt;&#9;&lt;/span&gt; Menu Items&#9;&lt;/span&gt;&amp;nbsp;" style="html=1;dashed=0;whitespace=wrap;shape=mxgraph.dfd.dataStoreID;align=left;spacingLeft=3;points=[[0,0],[0.5,0],[1,0],[0,0.5],[1,0.5],[0,1],[0.5,1],[1,1]];" vertex="1" parent="1">
                    <mxGeometry x="247.5" y="470" width="125" height="30" as="geometry"/>
                </mxCell>
                <mxCell id="23" value="&lt;span style=&quot;white-space: pre;&quot;&gt;&amp;nbsp; D2&lt;span style=&quot;white-space: pre;&quot;&gt;&#9;&lt;/span&gt;  Order Queue List&lt;/span&gt;" style="html=1;dashed=0;whitespace=wrap;shape=mxgraph.dfd.dataStoreID;align=left;spacingLeft=3;points=[[0,0],[0.5,0],[1,0],[0,0.5],[1,0.5],[0,1],[0.5,1],[1,1]];" vertex="1" parent="1">
                    <mxGeometry x="485.01" y="470" width="138.75" height="30" as="geometry"/>
                </mxCell>
                <mxCell id="24" value="&lt;span style=&quot;white-space: pre;&quot;&gt;&amp;nbsp; D3&lt;span style=&quot;white-space: pre;&quot;&gt;&#9;&lt;/span&gt;  Items Ordered&lt;/span&gt;" style="html=1;dashed=0;whitespace=wrap;shape=mxgraph.dfd.dataStoreID;align=left;spacingLeft=3;points=[[0,0],[0.5,0],[1,0],[0,0.5],[1,0.5],[0,1],[0.5,1],[1,1]];" vertex="1" parent="1">
                    <mxGeometry x="760" y="470" width="120" height="30" as="geometry"/>
                </mxCell>
                <mxCell id="25" value="Customer&lt;br&gt;Preferences" style="text;html=1;align=center;verticalAlign=middle;resizable=0;points=[];autosize=1;strokeColor=none;fillColor=none;" vertex="1" parent="1">
                    <mxGeometry x="557.5" y="135" width="90" height="40" as="geometry"/>
                </mxCell>
                <mxCell id="26" value="QR Code (E-receipt)" style="text;html=1;strokeColor=none;fillColor=none;align=center;verticalAlign=middle;whiteSpace=wrap;rounded=0;" vertex="1" parent="1">
                    <mxGeometry x="780" y="140" width="165.63" height="30" as="geometry"/>
                </mxCell>
                <mxCell id="27" value="Order Details" style="text;html=1;strokeColor=none;fillColor=none;align=center;verticalAlign=middle;whiteSpace=wrap;rounded=0;" vertex="1" parent="1">
                    <mxGeometry x="495.63" y="410" width="55.62" height="30" as="geometry"/>
                </mxCell>
                <mxCell id="28" value="Item Details" style="text;html=1;strokeColor=none;fillColor=none;align=center;verticalAlign=middle;whiteSpace=wrap;rounded=0;" vertex="1" parent="1">
                    <mxGeometry x="305" y="380" width="90" height="60" as="geometry"/>
                </mxCell>
                <mxCell id="29" value="Ordered Items" style="text;html=1;strokeColor=none;fillColor=none;align=center;verticalAlign=middle;whiteSpace=wrap;rounded=0;" vertex="1" parent="1">
                    <mxGeometry x="665" y="410" width="80" height="30" as="geometry"/>
                </mxCell>
            </root>
        </mxGraphModel>
    </diagram>
</mxfile>